<svg width="6" height="11" viewBox="0 0 6 11" fill="none" xmlns="http://www.w3.org/2000/svg">
<path d="M0.000558706 5.52338C0.00489448 5.70881 0.077869 5.88603 0.205356 6.02074L4.69921 10.7018C4.83749 10.8447 5.02676 10.9269 5.22554 10.9304C5.42432 10.934 5.61639 10.8585 5.75966 10.7207C5.90292 10.5828 5.98571 10.3938 5.98984 10.1951C5.99397 9.99628 5.91912 9.80398 5.7817 9.6603L1.78522 5.49998L5.7817 1.33965C5.91912 1.19597 5.99397 1.00367 5.98984 0.804902C5.98571 0.606132 5.90292 0.417108 5.75966 0.279263C5.61639 0.141417 5.42432 0.065997 5.22554 0.0695336C5.02675 0.0730701 4.83749 0.155274 4.69921 0.298128L0.205356 4.97922C0.136674 5.05169 0.0831684 5.13717 0.0479981 5.23062C0.0128279 5.32407 -0.00329729 5.42361 0.000558706 5.52338Z" fill="#F7F2E9"/>
</svg>
