<svg width="27" height="23" viewBox="0 0 27 23" fill="none" xmlns="http://www.w3.org/2000/svg">
<path d="M15.4009 3.27756L15.4005 3.27802L14.3744 4.30509L13.667 5.01327L12.9595 4.30509L11.9335 3.27802L11.9323 3.27686C9.64173 0.97636 5.97339 0.655909 3.56035 2.65325C0.747358 4.98585 0.599298 9.16883 3.11495 11.6957L15.4009 3.27756ZM15.4009 3.27756C17.6972 0.975888 21.3606 0.65626 23.7733 2.65301L15.4009 3.27756ZM13.1927 21.8043L3.11538 11.6962L23.7739 2.65349C26.5866 4.98617 26.7344 9.1688 24.214 11.6955L24.2138 11.6957L14.136 21.8043C13.8757 22.0652 13.453 22.0652 13.1927 21.8043Z" stroke="#7DA1B8" stroke-width="2"/>
</svg>
