<svg width="531" height="193" viewBox="0 0 531 193" fill="none" xmlns="http://www.w3.org/2000/svg">
<g clip-path="url(#clip0_731_1846)">
<path fill-rule="evenodd" clip-rule="evenodd" d="M8 146.025C57.1798 174.164 146.999 193 249.651 193C405.119 193 531.151 149.795 531.151 96.5C531.151 43.2045 405.119 0 249.651 0C147.183 0 57.5026 18.7681 8.26545 46.8235L57.7335 96.2915L8 146.025Z" fill="#F76631"/>
<path d="M138.728 101.167C138.728 111.965 132.129 122.23 120.197 122.23C108.533 122.23 104 114.365 104 105.899C104 96.6342 109.799 86.7691 119.064 86.7691C125.33 86.7691 128.196 92.4349 128.196 98.1673C128.196 104.166 125.263 109.965 119.864 109.965C118.331 109.965 117.131 109.299 116.598 108.432C119.531 105.499 121.864 99.7003 121.864 95.0344C121.864 92.5015 121.064 90.3686 119.331 89.4354C114.798 90.5685 111.199 98.7005 111.199 106.433C111.199 112.698 113.865 118.564 120.597 119.497C127.196 118.031 131.929 109.165 131.929 102.433C131.929 87.9023 123.797 81.8366 123.797 68.6388C123.797 59.6403 129.796 54.5745 135.195 54.5745C142.794 54.5745 146.26 59.1737 147.193 64.2395C147.126 62.7731 147.06 61.1734 147.06 59.5736C147.06 53.708 147.793 47.7756 151.992 47.7756C153.925 47.7756 155.991 49.1087 156.725 51.5083C150.992 54.5745 149.459 60.8401 147.926 66.6391C147.393 68.7055 146.793 70.7718 146.06 72.6382C144.66 75.9709 142.194 78.1039 139.861 78.1039C138.794 78.1039 137.794 77.704 136.928 76.8375C139.661 73.7713 141.127 69.5053 141.194 65.6393C141.194 61.7733 139.861 58.3738 137.061 56.7741C133.595 56.9074 130.596 61.0401 130.596 67.0391C130.596 79.2371 138.728 86.6358 138.728 101.167ZM151.671 106.966C153.404 106.966 154.937 104.433 159.137 93.1681C161.336 87.3024 162.936 81.3034 162.603 79.5037C159.203 79.9703 154.937 87.0358 148.272 104.166C149.672 106.233 150.671 106.966 151.671 106.966ZM138.34 131.562C135.407 131.695 133.874 130.895 133.874 129.162C133.874 124.496 142.939 100.9 145.272 94.7012C147.872 87.769 153.538 73.0381 154.537 69.6387C157.804 69.7053 158.937 70.1719 158.937 71.9049C158.937 74.0379 154.804 83.5697 153.271 88.1023C157.004 80.1036 160.337 76.2376 162.936 76.2376C165.269 76.2376 168.269 78.7038 168.269 81.77C168.269 88.8355 164.403 101.1 159.337 107.166C165.136 103.1 172.001 92.1683 175.867 82.9031C176.334 82.8365 176.401 82.9698 176.401 83.3031C176.401 86.6358 166.002 110.898 153.804 110.898C150.938 110.898 149.005 109.299 147.472 106.233C144.806 113.098 141.806 121.497 138.34 131.562ZM179.84 91.7017C179.84 94.7012 180.44 97.634 181.906 99.767C184.506 94.2346 186.839 87.2357 186.839 82.2366C186.839 80.7035 186.372 79.0371 184.373 78.3705C181.973 79.837 179.84 85.9693 179.84 91.7017ZM176.707 108.232C177.774 107.232 179.307 104.966 180.773 102.1C178.64 99.5004 177.774 95.3011 177.64 91.1684C175.841 95.701 174.708 100.434 174.708 103.766C174.708 106.099 175.307 107.766 176.707 108.232ZM184.439 105.966C181.973 109.499 178.974 110.832 176.707 110.832C172.441 110.832 168.709 107.966 168.709 102.5C168.709 96.3676 171.641 88.0356 175.774 82.0366C176.507 80.9035 177.44 79.637 178.507 79.637C178.774 79.637 179.107 79.7037 179.44 79.9036C180.707 77.704 182.706 76.3042 185.772 76.3042C189.372 76.3042 193.171 78.9704 193.171 83.4364C193.171 87.8356 190.172 96.3676 186.372 102.9C191.438 100.434 196.237 91.2351 200.503 80.3036C201.303 80.1702 201.903 80.3036 201.903 81.37C201.903 85.2361 195.304 104.766 186.439 104.766C186.039 104.766 185.639 104.766 185.306 104.7C185.039 105.099 184.706 105.566 184.439 105.966ZM197.078 110.898C194.345 110.898 191.479 108.632 191.479 105.633C191.479 101.9 196.278 89.1021 200.277 79.3704C198.944 79.3037 197.744 79.1704 196.745 79.0371C196.678 78.7705 196.678 78.7038 196.678 78.5039C196.678 77.8373 196.945 77.2374 197.878 77.1707C198.944 77.1041 200.077 77.1041 201.21 77.1041C202.81 73.3047 204.143 70.1719 204.877 68.7055C208.609 68.5722 209.876 69.772 209.876 71.305C209.876 72.3715 208.809 74.8378 207.743 77.1041C209.342 77.1041 210.876 77.1707 212.342 77.1707C212.542 77.504 212.609 77.7706 212.609 77.9706C212.609 79.0371 210.742 79.437 206.743 79.5703C204.477 85.1694 201.877 91.9683 198.678 100.767C198.011 102.7 197.678 104.166 197.678 105.233C197.611 106.433 197.944 107.166 198.478 107.699C201.144 106.299 203.543 102.966 205.343 99.767C205.876 99.7003 206.276 99.8337 206.276 100.5C206.276 103.366 201.077 110.898 197.078 110.898ZM225.638 122.297C219.039 122.297 215.44 117.831 215.44 111.698C215.44 105.233 219.706 101.567 223.905 101.567C226.638 101.567 227.371 103.233 227.238 104.3C224.238 105.499 221.572 108.366 221.572 113.031C221.572 116.831 223.372 119.297 225.438 119.964C229.971 118.231 232.504 113.898 235.703 106.299C241.302 92.7015 248.901 70.7718 252.5 61.3067C247.435 60.0402 242.569 57.8406 236.636 57.1074C231.171 59.1737 225.838 74.7045 225.838 84.1696C225.838 87.9023 226.638 90.7018 228.638 91.3684C233.437 87.569 235.837 74.3045 235.837 68.4389C235.837 67.3724 235.77 66.5058 235.637 66.0392C236.103 65.4393 236.903 65.1727 237.703 65.1727C240.502 65.1727 241.836 68.4389 241.836 72.7048C241.836 81.1701 236.836 93.7013 228.638 93.7013C222.439 93.7013 219.639 88.3022 219.706 81.4367C219.706 69.9719 227.638 54.5745 240.302 54.5745C244.435 54.5745 257.3 55.7076 261.899 55.7076C264.432 55.7076 266.231 55.3077 267.098 54.5078C267.765 54.9744 268.098 55.7076 268.098 56.5075C268.098 59.0404 266.631 62.2399 259.366 62.2399C258.499 62.2399 257.633 62.1732 256.833 62.1066C257.366 63.1064 257.633 64.1729 257.366 64.8394C252.834 77.5707 246.035 98.3672 241.502 108.499C237.303 117.897 233.437 122.297 225.638 122.297ZM268.879 110.898C266.547 110.898 264.147 108.499 264.147 105.499C264.147 103.166 266.347 97.634 269.213 91.9683C272.079 86.1692 275.212 80.7701 275.078 78.9038C272.546 78.5039 259.081 102.367 255.482 110.632C253.082 110.499 250.816 110.232 250.816 108.166C250.816 106.366 252.549 100.833 254.882 94.7012C256.415 90.6352 258.081 86.4359 259.681 82.3699C264.347 70.6385 269.146 59.3737 271.346 55.3077C274.745 55.3077 276.412 55.7076 276.412 57.374C276.412 57.8406 276.212 58.5072 275.878 59.307C272.212 67.7723 266.813 80.1036 261.814 94.0346C266.613 84.7028 271.279 76.3709 275.478 76.3709C277.811 76.3709 281.077 77.504 281.077 80.5702C281.077 82.8365 278.811 87.969 275.745 94.0346C272.812 99.9003 269.879 105.899 270.213 107.566C276.078 104.166 283.544 92.3016 287.41 82.9031C287.876 82.8365 287.943 82.9698 287.943 83.3031C287.943 86.6358 276.745 110.898 268.879 110.898ZM297.941 78.7038C294.808 78.9038 288.409 91.5017 286.543 99.7003C292.542 98.7005 298.407 85.1028 298.407 80.2369C298.407 79.5037 298.274 78.9704 297.941 78.7038ZM299.674 100.3C299.674 103.233 293.875 110.898 289.342 110.898C284.143 110.898 279.877 107.832 279.877 103.233C279.877 96.5009 283.677 85.436 288.876 79.5703C290.609 77.5707 292.808 76.1709 295.874 76.1709C299.274 76.1709 303.007 77.8373 303.007 82.7032C303.007 88.3022 296.208 101.833 288.009 101.833C287.409 101.833 286.809 101.767 286.143 101.567C286.076 102.3 286.009 102.966 286.009 103.566C286.009 105.499 286.676 106.832 288.342 107.632C292.808 107.099 296.541 103.366 298.741 99.567C299.274 99.5004 299.674 99.6337 299.674 100.3ZM345.096 122.297C342.096 122.297 340.563 119.23 340.096 114.498C335.764 119.697 331.764 122.23 328.432 122.23C325.432 122.23 322.966 119.564 322.966 113.565C322.966 108.432 327.165 97.9006 331.164 87.569C334.897 77.9706 338.497 68.5722 338.497 63.7063C338.497 60.3735 337.897 58.7071 336.764 57.8406C324.166 59.0404 315.834 78.9704 315.834 89.902C315.834 93.568 316.7 96.3009 318.567 97.1008C321.166 94.1679 322.166 89.3687 322.166 85.5027C322.166 83.7696 321.899 82.3032 321.499 81.4367C322.099 80.7035 322.899 80.3036 323.766 80.3036C326.232 80.3036 327.365 82.7032 327.365 85.7693C327.365 91.5684 323.432 99.767 316.767 99.767C311.701 99.767 309.435 95.3677 309.435 90.0353C309.435 73.9713 320.3 54.6411 333.497 54.6411C338.897 54.6411 344.829 59.1071 344.829 66.0392C344.829 70.6385 341.363 79.9703 337.697 89.502C333.497 100.234 329.098 111.365 329.098 116.498C329.098 117.631 329.298 118.564 329.698 119.297C333.164 118.164 336.43 115.231 339.896 111.032C339.896 92.5682 349.961 61.7066 357.627 61.7066C360.426 61.7066 361.959 64.1062 361.826 66.8391C361.626 70.1719 359.493 76.6375 357.56 81.57C353.561 91.835 349.628 100.034 345.762 106.366C345.495 108.965 345.295 111.365 345.295 113.365C345.295 116.431 345.695 118.697 346.629 119.564C354.227 113.698 356.694 100.434 361.826 82.1033C367.958 60.1069 371.958 54.9078 379.023 54.9078C382.689 54.9078 385.156 56.4408 385.156 57.8406C385.156 58.0406 385.089 58.2405 384.956 58.4405C384.289 58.2405 383.289 58.1072 382.489 58.1072C376.024 58.1072 372.291 66.7058 367.692 81.9699C359.027 110.699 353.227 122.297 345.096 122.297ZM358.56 64.3729C354.894 67.7723 349.295 85.636 346.695 100.833C353.561 86.4359 358.96 70.5052 358.96 65.706C358.96 64.9728 358.827 64.5062 358.56 64.3729ZM382.974 110.898C380.974 110.898 379.041 108.699 379.041 106.899C379.041 105.233 380.575 101.7 381.841 97.834C378.175 105.099 375.175 110.898 371.976 110.898C369.643 110.898 366.643 108.632 366.643 105.566C366.643 101.767 368.11 96.2343 370.11 91.2351C373.176 83.4364 376.908 76.2376 381.441 76.2376C383.774 76.2376 386.574 78.3039 386.907 82.0366C387.64 80.2369 388.307 78.4372 388.906 76.9041C391.639 76.8375 393.772 77.0374 393.772 79.5037C393.772 81.1701 391.839 86.8358 389.64 92.6348C387.24 98.9005 384.307 105.166 383.574 108.166C387.907 106.433 395.505 93.0348 399.705 82.9031C400.171 82.8365 400.238 82.9698 400.238 83.3031C400.238 86.6358 389.44 110.898 382.974 110.898ZM372.309 107.832C374.709 106.699 378.375 100.634 381.774 93.7013C383.374 90.2352 385.374 86.4359 385.374 83.9696C385.44 81.7033 384.374 80.3702 383.241 80.3702C381.908 80.3702 380.241 83.0364 375.709 94.2346C373.309 100.1 371.976 106.033 372.309 107.832ZM396.834 110.898C394.368 110.898 390.768 110.032 390.768 106.633C390.768 102.767 393.568 96.1676 396.101 90.3686C398.567 84.9694 400.767 80.1702 400.567 78.7038C399.633 78.9704 398.5 79.2371 397.3 79.2371C395.834 79.2371 395.301 78.8371 395.301 78.1039C395.301 77.8373 395.367 77.504 395.501 77.1707C397.1 77.2374 398.234 76.7708 401.033 76.7708C403.633 76.7708 405.699 78.5039 405.699 81.3034C405.699 83.3697 403.566 87.9023 401.433 92.7682C399.233 97.634 397.1 102.7 397.1 105.899C397.1 106.766 397.234 107.432 397.567 107.966C400.9 104.766 405.966 96.9008 408.965 88.1689C408.965 81.9033 410.498 75.4377 413.498 75.4377C415.297 75.4377 416.431 78.1039 416.431 80.1036C416.431 82.9698 415.231 87.3024 413.364 91.835C417.497 91.0351 420.363 85.1694 421.296 82.9031C421.763 82.8365 421.83 82.9698 421.83 83.3031C421.83 84.1696 418.43 94.1679 412.031 94.7678C408.099 102.966 402.1 110.898 396.834 110.898ZM431.773 78.7038C428.64 78.9038 422.241 91.5017 420.375 99.7003C426.374 98.7005 432.239 85.1028 432.239 80.2369C432.239 79.5037 432.106 78.9704 431.773 78.7038ZM433.506 100.3C433.506 103.233 427.707 110.898 423.174 110.898C417.975 110.898 413.709 107.832 413.709 103.233C413.709 96.5009 417.509 85.436 422.708 79.5703C424.441 77.5707 426.64 76.1709 429.706 76.1709C433.106 76.1709 436.839 77.8373 436.839 82.7032C436.839 88.3022 430.04 101.833 421.841 101.833C421.241 101.833 420.641 101.767 419.975 101.567C419.908 102.3 419.841 102.966 419.841 103.566C419.841 105.499 420.508 106.832 422.174 107.632C426.64 107.099 430.373 103.366 432.573 99.567C433.106 99.5004 433.506 99.6337 433.506 100.3Z" fill="white"/>
<path opacity="0.4" d="M162 26.2528C190.118 21.0981 226.211 18 265.572 18C309.2 18 348.812 21.8061 378 28" stroke="white" stroke-width="2" stroke-linecap="round"/>
<path opacity="0.4" d="M162 164.747C190.118 169.902 226.211 173 265.572 173C309.2 173 348.812 169.194 378 163" stroke="white" stroke-width="2" stroke-linecap="round"/>
</g>
<defs>
<clipPath id="clip0_731_1846">
<rect width="531" height="193" fill="white"/>
</clipPath>
</defs>
</svg>
