<svg width="53" height="57" viewBox="0 0 53 57" fill="none" xmlns="http://www.w3.org/2000/svg">
<ellipse opacity="0.4" cx="26.5" cy="49" rx="17.5" ry="2" fill="black"/>
<g filter="url(#filter0_d_368_1662)">
<circle cx="26.5" cy="22.5" r="22.5" fill="white"/>
<path d="M26.3743 8.3009C26.307 8.25156 26.2257 8.22496 26.1422 8.22496C26.0587 8.22496 25.9774 8.25156 25.9101 8.3009C25.7274 8.43249 21.4776 11.6418 21.4815 19.7255C21.4815 26.4439 22.7891 33.8536 24.4532 36.587C24.4615 36.5954 24.4693 36.6031 24.4776 36.6115C24.5031 36.647 24.5342 36.6781 24.5698 36.7036C24.582 36.7158 24.5964 36.7236 24.6125 36.7319C24.6665 36.7612 24.7266 36.7771 24.788 36.7786L27.4981 36.7725C27.55 36.7726 27.6014 36.762 27.6491 36.7414C27.6962 36.722 27.7391 36.6935 27.7752 36.6575C27.7969 36.6355 27.8161 36.6111 27.8324 36.5848C29.4992 33.8486 30.8051 26.4417 30.8051 19.7233C30.8057 11.6429 26.5547 8.4336 26.3743 8.3009ZM29.9262 22.8876L26.3193 21.0797C26.2648 21.0525 26.2048 21.0384 26.1439 21.0384C26.083 21.0384 26.0229 21.0525 25.9684 21.0797L22.3599 22.8859C22.3355 22.4573 22.316 22.0285 22.3016 21.5994L26.1439 18.7133L29.9861 21.5994C29.9702 22.0299 29.9502 22.4593 29.9262 22.8876ZM26.5348 35.9868L26.5348 31.0407C26.533 30.9378 26.4908 30.8397 26.4174 30.7675C26.344 30.6954 26.2451 30.6549 26.1422 30.6549C26.0393 30.6549 25.9404 30.6954 25.867 30.7675C25.7936 30.8397 25.7514 30.9378 25.7496 31.0407L25.7496 35.9868L25.0128 35.9863C23.7824 33.7842 22.7758 28.8875 22.4127 23.7382L26.1433 21.871L29.874 23.7382C29.5108 28.8875 28.5042 33.7842 27.2732 35.9857L26.5348 35.9868ZM30.0205 19.7227C30.02 20.0264 30.015 20.3324 30.01 20.6383L26.3776 17.9099C26.3096 17.8589 26.2268 17.8314 26.1418 17.8315C26.0568 17.8316 25.9741 17.8593 25.9062 17.9104L22.2744 20.6383C22.2694 20.3324 22.2644 20.0265 22.2639 19.7227C22.2639 13.1376 25.2744 9.92942 26.1422 9.13154C27.0134 9.91831 30.0205 13.1154 30.0205 19.7227Z" fill="#F76631"/>
<rect x="21.7573" y="44.2427" width="6" height="6" transform="rotate(-45 21.7573 44.2427)" fill="white"/>
</g>
<defs>
<filter id="filter0_d_368_1662" x="0" y="0" width="53" height="56.4854" filterUnits="userSpaceOnUse" color-interpolation-filters="sRGB">
<feFlood flood-opacity="0" result="BackgroundImageFix"/>
<feColorMatrix in="SourceAlpha" type="matrix" values="0 0 0 0 0 0 0 0 0 0 0 0 0 0 0 0 0 0 127 0" result="hardAlpha"/>
<feOffset dy="4"/>
<feGaussianBlur stdDeviation="2"/>
<feComposite in2="hardAlpha" operator="out"/>
<feColorMatrix type="matrix" values="0 0 0 0 0 0 0 0 0 0 0 0 0 0 0 0 0 0 0.25 0"/>
<feBlend mode="normal" in2="BackgroundImageFix" result="effect1_dropShadow_368_1662"/>
<feBlend mode="normal" in="SourceGraphic" in2="effect1_dropShadow_368_1662" result="shape"/>
</filter>
</defs>
</svg>
