<svg width="29" height="20" viewBox="0 0 29 20" fill="none" xmlns="http://www.w3.org/2000/svg">
<path d="M17.3636 3.25629C17.3977 3.57076 17.6643 3.80386 17.9735 3.80386C17.9956 3.80386 18.0184 3.80263 18.0408 3.80017C18.3783 3.76332 18.6215 3.46021 18.5847 3.123L18.3034 0.547306C18.2668 0.210104 17.9649 -0.0318953 17.6262 0.00342188C17.2887 0.0402746 17.0455 0.343388 17.0823 0.68059L17.3636 3.25629Z" fill="#1B4B69"/>
<path d="M28.0503 8.37358C28.0134 8.03637 27.7121 7.79345 27.3728 7.82969L24.7971 8.111C24.4599 8.14785 24.2163 8.45097 24.2532 8.78817C24.2876 9.10265 24.5539 9.33574 24.8628 9.33574C24.8849 9.33574 24.9076 9.33451 24.9307 9.33205L27.5064 9.05074C27.8436 9.01389 28.0871 8.71047 28.0503 8.37358Z" fill="#1B4B69"/>
<path d="M25.9301 14.4555L23.9099 12.8334C23.6452 12.6209 23.2592 12.6633 23.0463 12.928C22.8341 13.1924 22.8762 13.5791 23.1409 13.7916L25.1611 15.4137C25.2744 15.5049 25.4104 15.5488 25.545 15.5488C25.7249 15.5488 25.903 15.4702 26.0247 15.3191C26.2369 15.0544 26.1945 14.6677 25.9301 14.4555Z" fill="#1B4B69"/>
<path d="M11.3769 4.34529L13.3974 5.96742C13.5107 6.05863 13.6464 6.10254 13.7812 6.10254C13.9612 6.10254 14.1393 6.02393 14.2606 5.87283C14.4728 5.60841 14.4308 5.22177 14.1663 5.00925L12.1459 3.38711C11.8815 3.1746 11.4948 3.21698 11.2823 3.4817C11.0698 3.74643 11.1122 4.13308 11.3769 4.34529Z" fill="#1B4B69"/>
<path d="M22.1809 5.00771C22.2942 5.09892 22.4303 5.14283 22.5651 5.14283C22.7447 5.14283 22.9232 5.06422 23.0445 4.91312L24.6666 2.89267C24.8788 2.62825 24.8367 2.24161 24.572 2.02909C24.3076 1.81627 23.9206 1.85895 23.7084 2.12368L22.0863 4.14413C21.8741 4.40855 21.9165 4.79519 22.1809 5.00771Z" fill="#1B4B69"/>
<path d="M21.5699 12.6304C22.5717 11.7244 23.1423 10.3692 22.9844 8.92669C22.7424 6.71246 20.8823 5.04303 18.6576 5.04303C18.4991 5.04303 18.3382 5.05163 18.1794 5.06913C17.0226 5.19535 15.9842 5.76504 15.2555 6.67253C15.1323 6.82609 15.0215 6.9864 14.922 7.15254C13.9856 6.46339 12.8333 6.05095 11.5837 6.05095C9.2663 6.05095 7.20931 7.44982 6.34757 9.57038C6.19494 9.59833 6.04599 9.63703 5.8992 9.68186C5.77083 9.71657 5.64368 9.75618 5.51931 9.80563C5.46894 9.82528 5.42441 9.85292 5.38264 9.88363C4.72022 10.1944 4.14931 10.6827 3.7427 11.3129C1.58712 11.6366 0 13.4587 0 15.6769C0 18.1012 1.90651 20 4.34002 20H18.6201C21.0893 20 23.0231 18.1832 23.0231 15.8639C23.0237 14.5793 22.4596 13.4264 21.5699 12.6304ZM18.3133 6.29019C18.4276 6.27759 18.5437 6.27115 18.6576 6.27115C20.2542 6.27115 21.5895 7.47009 21.7631 9.05997C21.8887 10.2113 21.3684 11.2843 20.4947 11.9234C19.9416 11.6679 19.3289 11.5211 18.6809 11.5211C18.1825 11.5211 17.6961 11.6043 17.2363 11.7668C17.2366 11.7456 17.2366 11.7244 17.2366 11.7032C17.2366 10.2909 16.7124 9.00101 15.8528 8.00906C15.9511 7.80975 16.0705 7.61873 16.2133 7.44091C16.737 6.78954 17.4826 6.38078 18.3133 6.29019ZM18.6207 18.7719H4.34063C2.59566 18.7719 1.22904 17.4123 1.22904 15.6772C1.22904 13.9964 2.49094 12.631 4.16436 12.5008C4.37319 12.4845 4.5596 12.3629 4.65849 12.1777C5.0089 11.522 5.59915 11.0534 6.29229 10.8501C6.46703 10.8086 6.64577 10.7853 6.82758 10.7853C7.57569 10.7853 8.28264 11.148 8.71904 11.7551C8.83912 11.9222 9.02707 12.011 9.2184 12.011C9.34247 12.011 9.46807 11.9735 9.57617 11.8955C9.85165 11.6974 9.9146 11.3135 9.71652 11.0383C9.21532 10.3409 8.48011 9.85476 7.66075 9.65637C8.41286 8.21021 9.91184 7.27937 11.584 7.27937C12.8054 7.27937 13.9119 7.77658 14.7131 8.57905C14.7365 8.6202 14.7635 8.65951 14.7973 8.69544C15.5614 9.50927 15.9821 10.5728 15.9821 11.6894C15.9821 12.8494 15.5092 13.9829 14.6843 14.7989C14.4432 15.0375 14.441 15.4266 14.6797 15.6677C14.7997 15.789 14.9579 15.8498 15.1164 15.8498C15.2724 15.8498 15.4287 15.7908 15.5482 15.6723C16.2256 15.0019 16.7148 14.1635 16.9805 13.2572C17.4866 12.9261 18.0704 12.7502 18.6803 12.7502C20.3977 12.7502 21.7947 14.1472 21.7947 15.8645C21.7953 17.5217 20.4308 18.7719 18.6207 18.7719Z" fill="#1B4B69"/>
</svg>
