<svg width="27" height="21" viewBox="0 0 27 21" fill="none" xmlns="http://www.w3.org/2000/svg">
<path d="M1.5 14.8462L7.84954 8.49662C8.10669 8.23946 8.41197 8.03548 8.74795 7.89631C9.08393 7.75714 9.44403 7.68551 9.80769 7.68551C10.1714 7.68551 10.5315 7.75714 10.8674 7.89631C11.2034 8.03548 11.5087 8.23946 11.7658 8.49662L18.1154 14.8462M16.2692 13L18.0034 11.2658C18.2605 11.0087 18.5658 10.8047 18.9018 10.6655C19.2378 10.5264 19.5979 10.4547 19.9615 10.4547C20.3252 10.4547 20.6853 10.5264 21.0213 10.6655C21.3573 10.8047 21.6625 11.0087 21.9197 11.2658L25.5 14.8462M3.34615 19.4615H23.6538C24.1435 19.4615 24.6131 19.267 24.9593 18.9208C25.3055 18.5746 25.5 18.105 25.5 17.6154V2.84615C25.5 2.35652 25.3055 1.88695 24.9593 1.54073C24.6131 1.1945 24.1435 1 23.6538 1H3.34615C2.85652 1 2.38695 1.1945 2.04073 1.54073C1.69451 1.88695 1.5 2.35652 1.5 2.84615V17.6154C1.5 18.105 1.69451 18.5746 2.04073 18.9208C2.38695 19.267 2.85652 19.4615 3.34615 19.4615ZM16.2692 5.61538H16.2791V5.62523H16.2692V5.61538ZM16.7308 5.61538C16.7308 5.73779 16.6821 5.85519 16.5956 5.94174C16.509 6.0283 16.3916 6.07692 16.2692 6.07692C16.1468 6.07692 16.0294 6.0283 15.9429 5.94174C15.8563 5.85519 15.8077 5.73779 15.8077 5.61538C15.8077 5.49298 15.8563 5.37558 15.9429 5.28903C16.0294 5.20247 16.1468 5.15385 16.2692 5.15385C16.3916 5.15385 16.509 5.20247 16.5956 5.28903C16.6821 5.37558 16.7308 5.49298 16.7308 5.61538Z" stroke="#52768D" stroke-width="2" stroke-linecap="round" stroke-linejoin="round"/>
</svg>
