<svg width="23" height="23" viewBox="0 0 23 23" fill="none" xmlns="http://www.w3.org/2000/svg">
<path d="M11.3333 0.333328C9.09181 0.333328 6.90063 0.998017 5.03688 2.24334C3.17312 3.48866 1.7205 5.25869 0.862704 7.32958C0.00491093 9.40048 -0.219527 11.6792 0.217772 13.8777C0.655071 16.0761 1.73447 18.0955 3.31946 19.6805C4.90446 21.2655 6.92386 22.3449 9.12231 22.7822C11.3208 23.2195 13.5995 22.9951 15.6704 22.1373C17.7413 21.2795 19.5113 19.8269 20.7567 17.9631C22.002 16.0994 22.6667 13.9082 22.6667 11.6667C22.6639 8.66173 21.4689 5.78067 19.3441 3.65586C17.2193 1.53106 14.3383 0.336116 11.3333 0.333328ZM11.3333 20.8906C10.0956 20.8929 8.8701 20.6454 7.73026 20.1629C6.59042 19.6804 5.55966 18.9729 4.6997 18.0827C6.50728 15.7907 8.85538 14.5377 11.3333 14.5377C13.8113 14.5377 16.1594 15.7943 17.967 18.0721C17.1082 18.9649 16.078 19.6751 14.9381 20.16C13.7982 20.6449 12.5721 20.8946 11.3333 20.8941V20.8906ZM11.3333 11.8141C10.8036 11.8175 10.2848 11.6637 9.8427 11.3719C9.40058 11.0801 9.05505 10.6637 8.84993 10.1753C8.64481 9.68688 8.58934 9.14859 8.69054 8.62863C8.79175 8.10868 9.04508 7.63048 9.41841 7.25469C9.79173 6.87889 10.2682 6.62242 10.7875 6.5178C11.3068 6.41317 11.8455 6.4651 12.3352 6.667C12.8249 6.8689 13.2437 7.21168 13.5383 7.65188C13.833 8.09207 13.9903 8.60985 13.9903 9.13956C13.9917 9.48986 13.9241 9.83701 13.7913 10.1612C13.6585 10.4853 13.4632 10.7802 13.2165 11.0289C12.9697 11.2775 12.6764 11.4752 12.3533 11.6105C12.0302 11.7458 11.6836 11.8162 11.3333 11.8176V11.8141ZM19.2797 16.3488C17.9619 14.7563 16.228 13.5607 14.2711 12.8951C15.0507 12.2836 15.6202 11.4441 15.9003 10.4937C16.1803 9.54326 16.157 8.52913 15.8335 7.59258C15.51 6.65603 14.9025 5.84368 14.0955 5.26868C13.2886 4.69368 12.3224 4.38466 11.3316 4.38466C10.3407 4.38466 9.37456 4.69368 8.56762 5.26868C7.76068 5.84368 7.15316 6.65603 6.82968 7.59258C6.5062 8.52913 6.48285 9.54326 6.7629 10.4937C7.04295 11.4441 7.61245 12.2836 8.39207 12.8951C6.43639 13.5612 4.70381 14.7568 3.38702 16.3488C2.55915 14.9475 2.11665 13.3521 2.10443 11.7246C2.0922 10.0971 2.51067 8.49525 3.3174 7.08166C4.12412 5.66807 5.29039 4.49301 6.69788 3.67569C8.10536 2.85837 9.70399 2.42787 11.3316 2.42787C12.9592 2.42787 14.5578 2.85837 15.9653 3.67569C17.3728 4.49301 18.539 5.66807 19.3458 7.08166C20.1525 8.49525 20.571 10.0971 20.5587 11.7246C20.5465 13.3521 20.104 14.9475 19.2761 16.3488H19.2797Z" fill="#7DA1B8"/>
</svg>
