<svg width="32" height="32" viewBox="0 0 32 32" fill="none" xmlns="http://www.w3.org/2000/svg">
<path d="M15.3333 5.33337C13.0918 5.33337 10.9006 5.99806 9.03688 7.24338C7.17312 8.48871 5.7205 10.2587 4.8627 12.3296C4.00491 14.4005 3.78047 16.6793 4.21777 18.8777C4.65507 21.0762 5.73447 23.0956 7.31946 24.6806C8.90446 26.2656 10.9239 27.345 13.1223 27.7823C15.3208 28.2196 17.5995 27.9951 19.6704 27.1373C21.7413 26.2795 23.5113 24.8269 24.7567 22.9632C26.002 21.0994 26.6667 18.9082 26.6667 16.6667C26.6639 13.6618 25.4689 10.7807 23.3441 8.65591C21.2193 6.5311 18.3383 5.33616 15.3333 5.33337ZM15.3333 25.8906C14.0956 25.8929 12.8701 25.6454 11.7303 25.163C10.5904 24.6805 9.55966 23.973 8.6997 23.0827C10.5073 20.7908 12.8554 19.5378 15.3333 19.5378C17.8113 19.5378 20.1594 20.7943 21.967 23.0722C21.1082 23.965 20.078 24.6751 18.9381 25.16C17.7982 25.6449 16.5721 25.8946 15.3333 25.8941V25.8906ZM15.3333 16.8141C14.8036 16.8176 14.2848 16.6637 13.8427 16.3719C13.4006 16.0802 13.0551 15.6637 12.8499 15.1753C12.6448 14.6869 12.5893 14.1486 12.6905 13.6287C12.7917 13.1087 13.0451 12.6305 13.4184 12.2547C13.7917 11.8789 14.2682 11.6225 14.7875 11.5178C15.3068 11.4132 15.8455 11.4651 16.3352 11.667C16.8249 11.8689 17.2437 12.2117 17.5383 12.6519C17.833 13.0921 17.9903 13.6099 17.9903 14.1396C17.9917 14.4899 17.9241 14.8371 17.7913 15.1612C17.6585 15.4854 17.4632 15.7802 17.2165 16.0289C16.9697 16.2776 16.6764 16.4752 16.3533 16.6106C16.0302 16.7459 15.6836 16.8162 15.3333 16.8176V16.8141ZM23.2797 21.3489C21.9619 19.7563 20.228 18.5607 18.2711 17.8952C19.0507 17.2836 19.6202 16.4442 19.9003 15.4937C20.1803 14.5433 20.157 13.5292 19.8335 12.5926C19.51 11.6561 18.9025 10.8437 18.0955 10.2687C17.2886 9.69373 16.3224 9.38471 15.3316 9.38471C14.3407 9.38471 13.3746 9.69373 12.5676 10.2687C11.7607 10.8437 11.1532 11.6561 10.8297 12.5926C10.5062 13.5292 10.4829 14.5433 10.7629 15.4937C11.043 16.4442 11.6124 17.2836 12.3921 17.8952C10.4364 18.5613 8.70381 19.7568 7.38702 21.3489C6.55915 19.9475 6.11665 18.3522 6.10443 16.7247C6.0922 15.0971 6.51067 13.4953 7.3174 12.0817C8.12412 10.6681 9.29039 9.49306 10.6979 8.67574C12.1054 7.85842 13.704 7.42792 15.3316 7.42792C16.9592 7.42792 18.5578 7.85842 19.9653 8.67574C21.3728 9.49306 22.539 10.6681 23.3458 12.0817C24.1525 13.4953 24.571 15.0971 24.5587 16.7247C24.5465 18.3522 24.104 19.9475 23.2761 21.3489H23.2797Z" fill="#7DA1B8"/>
</svg>
