<svg width="33" height="32" viewBox="0 0 33 32" fill="none" xmlns="http://www.w3.org/2000/svg">
<path d="M22.9446 22.0676L22.8764 22.1401L22.9486 22.2086L27.7955 26.8076C28.3834 27.3654 28.3836 28.2594 27.7697 28.8176L27.7697 28.8176L27.7681 28.8191C27.4863 29.0865 27.1005 29.2333 26.7142 29.2333C26.3279 29.2333 25.9421 29.0865 25.6603 28.8191L20.6217 24.0382L20.5669 23.9862L20.5019 24.0248C18.7641 25.0553 16.7005 25.6737 14.4737 25.6737C8.19834 25.6737 3.1 20.8288 3.1 14.8868C3.1 8.9449 8.19834 4.1 14.4737 4.1C20.7491 4.1 25.8475 8.9449 25.8475 14.8868C25.8475 17.6394 24.736 20.1618 22.9446 22.0676ZM14.4737 6.94C9.85024 6.94 6.10388 10.5138 6.10388 14.8868C6.10388 19.2863 9.87806 22.8337 14.4737 22.8337C19.0701 22.8337 22.8162 19.2597 22.8162 14.8868C22.8162 10.5142 19.0977 6.94 14.4737 6.94Z" fill="#7DA1B8" stroke="white" stroke-width="0.2"/>
</svg>
