<svg width="26" height="26" viewBox="0 0 26 26" fill="none" xmlns="http://www.w3.org/2000/svg">
<path d="M19.9446 18.0676L19.8764 18.1401L19.9486 18.2086L24.7955 22.8076C25.3834 23.3654 25.3836 24.2594 24.7697 24.8176L24.7697 24.8176L24.7681 24.8191C24.4863 25.0865 24.1005 25.2333 23.7142 25.2333C23.3279 25.2333 22.9421 25.0865 22.6603 24.8191L17.6217 20.0382L17.5669 19.9862L17.5019 20.0248C15.7641 21.0553 13.7005 21.6737 11.4737 21.6737C5.19835 21.6737 0.100008 16.8288 0.100008 10.8868C0.100008 4.9449 5.19835 0.1 11.4737 0.1C17.7491 0.1 22.8475 4.9449 22.8475 10.8868C22.8475 13.6394 21.736 16.1618 19.9446 18.0676ZM11.4737 2.94C6.85024 2.94 3.10389 6.51377 3.10389 10.8868C3.10389 15.2863 6.87807 18.8337 11.4737 18.8337C16.0701 18.8337 19.8162 15.2597 19.8162 10.8868C19.8162 6.5142 16.0977 2.94 11.4737 2.94Z" fill="#7DA1B8" stroke="white" stroke-width="0.2"/>
</svg>
