<svg width="22" height="21" viewBox="0 0 22 21" fill="none" xmlns="http://www.w3.org/2000/svg">
<path d="M21.8947 4.29687C21.67 3.74022 21.2008 3.34291 20.6706 3.25978C20.2552 3.19532 19.6244 3.2893 18.971 4.10951C18.131 5.16558 16.6172 6.36383 15.5804 6.83584C15.4011 6.16261 14.9136 5.60627 13.934 5.17703C13.7667 4.377 13.3418 3.92908 12.9944 3.69233C12.5936 3.41882 12.1435 3.3152 11.7603 3.31852C11.6388 2.82934 11.3918 2.40281 11.0155 2.05491C10.3438 1.4338 9.58553 1.18861 8.76203 1.32445C6.93262 1.62718 5.26849 3.80257 4.51105 4.94148C4.44957 4.7481 4.40525 4.5511 4.38352 4.35019C3.99293 0.759069 2.57412 0 1.44497 0H1.42696C1.01092 0.00301218 0.675805 0.154826 0.431045 0.451225C0.0221585 0.946125 -0.0919294 1.78532 0.072197 3.0926C0.189716 4.02608 0.328966 5.79182 0.23232 6.83162C0.129384 7.93558 0.104793 9.58083 0.177993 10.4998L0.191718 10.6878C0.248333 11.4764 0.358703 12.9765 1.06954 14.3753C1.09413 15.2238 0.512536 16.6088 0.277784 17.0863C0.168843 17.3077 0.250906 17.5806 0.461068 17.695C0.524259 17.7297 0.59174 17.7459 0.658077 17.7459C0.813053 17.7459 0.962597 17.6571 1.03923 17.5023C1.10928 17.3601 1.55391 16.4362 1.78723 15.4663C2.02084 15.7456 2.28533 16.0115 2.59557 16.2519C3.35387 16.8402 4.14419 17.1327 4.92393 17.1327C5.16412 17.1327 5.40345 17.104 5.64049 17.0489C5.6565 17.0775 5.66765 17.108 5.69024 17.133C6.33474 17.8514 7.01869 18.318 7.73696 18.5442C6.72075 19.4701 6.1769 20.2406 6.14945 20.2801C6.00877 20.481 6.04966 20.7635 6.24038 20.912C6.31701 20.9714 6.40622 21 6.49457 21C6.6261 21 6.7562 20.9364 6.83998 20.8163C6.84742 20.8057 7.57712 19.7749 8.92359 18.6939C9.50518 18.6638 10.1056 18.4951 10.7247 18.1719C12.2533 17.3733 13.2935 15.838 14.3947 14.213C14.9757 13.3548 15.5767 12.4686 16.2701 11.6644C21.6757 8.20818 22.315 5.33517 21.8947 4.29687ZM13.9698 6.18671C14.8007 6.65179 14.958 7.25995 14.68 8.50669C14.3349 10.0534 12.1795 12.7921 11.2886 12.8159C11.0873 12.8243 10.5637 12.8334 10.3167 11.6475C10.4299 11.5728 10.5446 11.4927 10.6618 11.4014C12.0151 10.3468 13.7261 8.02715 13.9698 6.18671ZM11.1976 6.45058C11.5982 5.64271 11.8127 4.89268 11.8438 4.22277C12.048 4.23392 12.2988 4.29476 12.5281 4.4511C12.8663 4.68153 13.0691 5.05504 13.1308 5.56078C13.2984 6.93433 11.6328 9.52089 10.152 10.6752C9.47144 11.2059 9.01594 11.2915 8.81608 11.1975C8.35201 10.9764 8.35572 10.1863 8.37717 9.86669C9.4437 9.08894 10.5574 7.74069 11.1976 6.45058ZM15.7726 10.9243C15.7377 10.9466 15.706 10.974 15.6782 11.0059C14.9319 11.8635 14.3034 12.7906 13.6955 13.6873C12.6585 15.2178 11.6789 16.6634 10.3427 17.3616C8.92387 18.1035 7.66605 17.8902 6.50429 16.7137C6.92576 16.4878 7.33551 16.1745 7.72466 15.7645C7.89194 15.588 7.89194 15.3019 7.72466 15.1257C7.55711 14.9491 7.28547 14.9491 7.11791 15.1257C6.24238 16.0489 4.83529 16.8682 3.10368 15.5242C1.298 14.1229 1.12158 11.6674 1.04638 10.6191L1.03179 10.4242C0.962597 9.55071 0.98633 7.97836 1.08526 6.91958C1.19764 5.71681 1.0275 3.81251 0.921995 2.97362C0.75701 1.6585 0.948586 1.20035 1.07754 1.04432C1.13101 0.97956 1.21965 0.905159 1.43239 0.903653H1.44354C2.84948 0.903653 3.35501 2.83265 3.53115 4.4532C3.59405 5.03184 3.78277 5.58157 4.08843 6.09755C4.0953 6.109 4.1013 6.12105 4.10931 6.13189C4.25485 6.37286 4.42383 6.60691 4.6217 6.83192C4.78268 7.01476 5.05432 7.0259 5.22788 6.85632C5.40145 6.68673 5.41202 6.40088 5.25104 6.21774C5.14496 6.09725 5.0506 5.97375 4.96368 5.84844C5.64449 4.73695 7.31978 2.47812 8.89528 2.21726C9.46286 2.12359 9.97182 2.29257 10.4496 2.73415C11.4184 3.63028 10.8579 5.18516 10.4379 6.03249C9.37422 8.17686 7.3844 9.78476 6.74305 9.61668C6.58321 9.57511 6.43681 9.41125 6.35161 9.17811C6.25868 8.92358 6.23123 8.53952 6.4331 8.22505C6.69101 7.82293 7.01869 7.35242 7.33579 6.89759C7.85705 6.14906 8.30711 5.50295 8.47095 5.13908C8.57246 4.91346 8.48125 4.64418 8.26708 4.53724C8.0532 4.43091 7.79729 4.5264 7.69578 4.75201C7.56711 5.03787 7.0979 5.71169 6.64412 6.36323C6.32244 6.82499 5.98961 7.30272 5.72255 7.71931C5.3943 8.23108 5.32996 8.89797 5.55128 9.50312C5.73971 10.0194 6.09941 10.3806 6.53775 10.4944C6.62553 10.5173 6.7176 10.5282 6.81368 10.5282C7.03156 10.5282 7.27031 10.4667 7.51994 10.364C7.57369 11.0417 7.83618 11.7225 8.46295 12.021C8.62364 12.0978 8.79921 12.1358 8.98821 12.1358C9.1572 12.1358 9.33762 12.1035 9.52634 12.043C9.87403 13.4069 10.6369 13.7208 11.2605 13.7208C11.2774 13.7208 11.294 13.7205 11.3106 13.7199C12.7717 13.6804 15.1338 10.4251 15.5155 8.71393C15.589 8.3847 15.6385 8.07234 15.6571 7.77533C16.9489 7.28827 18.7263 5.82465 19.6287 4.69056C19.8483 4.41465 20.1897 4.09897 20.5445 4.15409C20.8105 4.19566 21.018 4.43393 21.1061 4.6514C21.3014 5.13486 20.9697 7.6178 15.7726 10.9243Z" fill="#F7F2E9"/>
</svg>
