<svg width="22" height="22" viewBox="0 0 22 22" fill="none" xmlns="http://www.w3.org/2000/svg">
<path d="M9.95997 10.0115L12.3487 7.62254C13.4487 6.52226 15.0383 8.18842 13.9766 9.25017L11.5876 11.6392C10.5149 12.7116 8.87376 11.0963 9.95997 10.0115Z" fill="white"/>
<path d="M12.2533 12.3049L14.6428 9.91531C15.7414 8.81729 17.3446 10.4708 16.2705 11.5435L13.8812 13.9336C12.7998 15.0136 11.1721 13.3855 12.2533 12.3049Z" fill="white"/>
<path d="M7.66652 7.71756L10.0552 5.32857C11.0979 4.28595 12.7964 5.84439 11.6834 6.95733L9.29443 9.34519C8.21357 10.4272 6.61378 8.77115 7.66652 7.71756Z" fill="white"/>
<path d="M4.37542 2.55204V8.0101C4.37598 8.20782 4.50592 8.3912 4.69549 8.45505C8.04019 9.5857 9.27181 13.9575 6.60578 16.6236C6.19627 17.0334 6.86088 17.6991 7.27096 17.2893C9.41666 15.1442 8.96131 12.164 8.96131 12.164C10.2067 12.9099 10.1474 12.8528 10.9613 12.9304L10.9982 13.3177C11.1731 15.1568 13.363 15.7821 14.5468 14.5982L20.0242 9.12219C20.4886 8.65868 21.1878 8.65924 21.651 9.12331C22.1157 9.58795 22.1162 10.2869 21.6533 10.7504L13.7474 18.6557V18.6562C8.91996 23.4831 1.26023 19.7132 1.26023 13.4845V2.55119C1.26023 0.464835 4.37542 0.500836 4.37542 2.55204Z" fill="white"/>
</svg>
