<svg width="30" height="30" viewBox="0 0 30 30" fill="none" xmlns="http://www.w3.org/2000/svg">
<path d="M15 0C15.306 0 15.5995 0.121565 15.8159 0.337954C16.0323 0.554342 16.1538 0.847827 16.1538 1.15385V4.61538C16.1538 4.9214 16.0323 5.21489 15.8159 5.43128C15.5995 5.64767 15.306 5.76923 15 5.76923C14.694 5.76923 14.4005 5.64767 14.1841 5.43128C13.9677 5.21489 13.8462 4.9214 13.8462 4.61538V1.15385C13.8462 0.847827 13.9677 0.554342 14.1841 0.337954C14.4005 0.121565 14.694 0 15 0ZM8.07692 15C8.07692 13.1639 8.80632 11.403 10.1046 10.1046C11.403 8.80632 13.1639 8.07692 15 8.07692C16.8361 8.07692 18.597 8.80632 19.8954 10.1046C21.1937 11.403 21.9231 13.1639 21.9231 15C21.9231 16.8361 21.1937 18.597 19.8954 19.8954C18.597 21.1937 16.8361 21.9231 15 21.9231C13.1639 21.9231 11.403 21.1937 10.1046 19.8954C8.80632 18.597 8.07692 16.8361 8.07692 15ZM25.6062 6.02462C25.81 5.80588 25.9209 5.51658 25.9157 5.21766C25.9104 4.91873 25.7893 4.63353 25.5779 4.42212C25.3665 4.21072 25.0813 4.08962 24.7823 4.08435C24.4834 4.07907 24.1941 4.19003 23.9754 4.39385L21.5277 6.84C21.4174 6.94639 21.3295 7.07367 21.2689 7.21441C21.2084 7.35516 21.1765 7.50655 21.1751 7.65975C21.1737 7.81296 21.2028 7.96491 21.2608 8.10674C21.3187 8.24857 21.4043 8.37744 21.5126 8.48583C21.6209 8.59422 21.7497 8.67995 21.8915 8.73804C22.0332 8.79612 22.1852 8.82539 22.3384 8.82413C22.4916 8.82287 22.643 8.79111 22.7838 8.73071C22.9246 8.6703 23.052 8.58246 23.1585 8.47231L25.6062 6.02462ZM30 15C30 15.306 29.8784 15.5995 29.662 15.8159C29.4457 16.0323 29.1522 16.1538 28.8462 16.1538H25.3846C25.0786 16.1538 24.7851 16.0323 24.5687 15.8159C24.3523 15.5995 24.2308 15.306 24.2308 15C24.2308 14.694 24.3523 14.4005 24.5687 14.1841C24.7851 13.9677 25.0786 13.8462 25.3846 13.8462H28.8462C29.1522 13.8462 29.4457 13.9677 29.662 14.1841C29.8784 14.4005 30 14.694 30 15ZM23.9754 25.6062C24.1941 25.81 24.4834 25.9209 24.7823 25.9157C25.0813 25.9104 25.3665 25.7893 25.5779 25.5779C25.7893 25.3665 25.9104 25.0813 25.9157 24.7823C25.9209 24.4834 25.81 24.1941 25.6062 23.9754L23.16 21.5277C23.0536 21.4174 22.9263 21.3295 22.7856 21.2689C22.6448 21.2084 22.4935 21.1765 22.3402 21.1751C22.187 21.1737 22.0351 21.2028 21.8933 21.2608C21.7514 21.3187 21.6226 21.4043 21.5142 21.5126C21.4058 21.6209 21.32 21.7497 21.262 21.8915C21.2039 22.0332 21.1746 22.1852 21.1759 22.3384C21.1771 22.4916 21.2089 22.643 21.2693 22.7838C21.3297 22.9246 21.4175 23.052 21.5277 23.1585L23.9754 25.6062ZM15 24.2308C15.306 24.2308 15.5995 24.3523 15.8159 24.5687C16.0323 24.7851 16.1538 25.0786 16.1538 25.3846V28.8462C16.1538 29.1522 16.0323 29.4457 15.8159 29.662C15.5995 29.8784 15.306 30 15 30C14.694 30 14.4005 29.8784 14.1841 29.662C13.9677 29.4457 13.8462 29.1522 13.8462 28.8462V25.3846C13.8462 25.0786 13.9677 24.7851 14.1841 24.5687C14.4005 24.3523 14.694 24.2308 15 24.2308ZM8.47385 23.1585C8.68393 22.9407 8.80009 22.6492 8.79732 22.3467C8.79455 22.0442 8.67307 21.7548 8.45903 21.541C8.245 21.3271 7.95554 21.2059 7.653 21.2034C7.35047 21.201 7.05906 21.3174 6.84154 21.5277L4.39385 23.9738C4.18356 24.1914 4.06712 24.4828 4.0696 24.7853C4.07209 25.0878 4.1933 25.3773 4.40713 25.5913C4.62097 25.8054 4.91031 25.9269 5.21284 25.9296C5.51538 25.9324 5.8069 25.8162 6.02462 25.6062L8.47231 23.16L8.47385 23.1585ZM5.76923 15C5.76923 15.306 5.64767 15.5995 5.43128 15.8159C5.21489 16.0323 4.9214 16.1538 4.61538 16.1538H1.15385C0.847827 16.1538 0.554342 16.0323 0.337954 15.8159C0.121565 15.5995 0 15.306 0 15C0 14.694 0.121565 14.4005 0.337954 14.1841C0.554342 13.9677 0.847827 13.8462 1.15385 13.8462H4.61538C4.9214 13.8462 5.21489 13.9677 5.43128 14.1841C5.64767 14.4005 5.76923 14.694 5.76923 15ZM6.84154 8.47231C7.06027 8.67612 7.34957 8.78708 7.6485 8.78181C7.94742 8.77653 8.23263 8.65544 8.44403 8.44403C8.65544 8.23263 8.77653 7.94742 8.78181 7.6485C8.78708 7.34957 8.67612 7.06027 8.47231 6.84154L6.02615 4.39385C5.80864 4.18356 5.51723 4.06712 5.21469 4.0696C4.91215 4.07209 4.62269 4.1933 4.40866 4.40713C4.19462 4.62097 4.07314 4.91031 4.07037 5.21284C4.0676 5.51538 4.18376 5.8069 4.39385 6.02462L6.84154 8.47231Z" fill="#FFC463"/>
</svg>
