<svg width="32" height="20" viewBox="0 0 32 20" fill="none" xmlns="http://www.w3.org/2000/svg">
<path d="M30.0401 17.3229C29.4842 16.7504 28.7385 16.4352 27.9405 16.4352C27.1425 16.4352 26.3968 16.7504 25.8409 17.3229L25.0843 18.1021C24.8038 18.3912 24.4275 18.5501 24.0251 18.5501C23.6224 18.5501 23.2461 18.391 22.9656 18.1021L22.209 17.3229C21.6531 16.7504 20.9074 16.4352 20.1094 16.4352C19.3113 16.4352 18.5657 16.7504 18.0098 17.3229L17.2532 18.1021C16.9727 18.3912 16.5964 18.5501 16.1939 18.5501C15.7913 18.5501 15.4149 18.391 15.1345 18.1021L14.3779 17.3229C13.822 16.7504 13.0763 16.4352 12.2783 16.4352C11.4802 16.4352 10.7346 16.7504 10.1787 17.3229L9.42185 18.1023C9.1414 18.3913 8.76547 18.5501 8.36283 18.5501C7.96018 18.5501 7.58384 18.391 7.30339 18.1021L6.54677 17.3229C5.99085 16.7504 5.24521 16.4352 4.44717 16.4352C3.64912 16.4352 2.90348 16.7504 2.34238 17.3283L0.979306 18.7608C0.703211 19.0507 0.71481 19.5097 1.00478 19.7856C1.29475 20.0621 1.75353 20.0503 2.02963 19.7603L3.38752 18.333C3.66797 18.0439 4.0441 17.885 4.44696 17.885C4.84961 17.885 5.22574 18.0441 5.50639 18.333L6.26301 19.1122C6.81893 19.6847 7.56457 20 8.36262 20C9.16066 20 9.9061 19.6847 10.462 19.1122L11.2186 18.333C11.4991 18.0439 11.8754 17.885 12.2781 17.885C12.6807 17.885 13.0571 18.0441 13.3375 18.333L14.0941 19.1122C14.65 19.6847 15.3955 20 16.1937 20C16.9918 20 17.7372 19.6847 18.2931 19.1122L19.0498 18.333C19.3302 18.0439 19.7065 17.885 20.1092 17.885C20.5118 17.885 20.8882 18.0441 21.1686 18.333L21.9252 19.1122C22.4812 19.6847 23.2266 20 24.0248 20C24.8229 20 25.5683 19.6847 26.1242 19.1122L26.8809 18.333C27.1613 18.0439 27.5377 17.885 27.9403 17.885C28.3429 17.885 28.7193 18.0441 28.9997 18.333L30.3908 19.7655C30.67 20.0528 31.1283 20.059 31.4158 19.7804C31.7031 19.5014 31.7097 19.0424 31.4307 18.7554L30.0401 17.3229Z" fill="#52768D"/>
<path d="M31.7521 11.5198C31.5195 11.1935 31.0661 11.1184 30.7409 11.3514C29.4642 12.2633 27.9555 12.6881 25.9926 12.6881C21.0003 12.6881 19.6685 9.50591 19.6685 7.62544C19.6685 6.04136 20.6942 4.93719 21.6146 4.93719C22.409 4.93719 23.0684 5.20831 23.6302 5.76568C24.0245 6.15715 24.6185 6.2112 25.0755 5.89783C25.5346 5.58259 25.6985 5.00492 25.4735 4.49333C24.736 2.81501 22.7625 0 17.8305 0C14.0389 0 10.6038 2.26199 8.87305 5.88892C6.81549 9.96241 4.49841 12.0641 1.36008 12.7026C0.967583 12.7826 0.714478 13.1652 0.794221 13.5577C0.864021 13.9011 1.16621 14.1382 1.50382 14.1382C1.55167 14.1382 1.60034 14.1335 1.64922 14.1235C5.21464 13.398 7.92132 10.9891 10.1744 6.5279C11.6696 3.39557 14.6033 1.44965 17.8307 1.44965C20.8634 1.44965 22.5355 2.68763 23.4429 3.88045C22.8864 3.61885 22.2754 3.48733 21.6151 3.48733C19.7425 3.48733 18.2191 5.34357 18.2191 7.62544C18.2191 10.7623 20.6517 14.138 25.993 14.138C28.2728 14.138 30.0495 13.6272 31.5839 12.5309C31.9095 12.2983 31.9849 11.8454 31.7521 11.5198Z" fill="#52768D"/>
</svg>
