<svg width="24" height="24" viewBox="0 0 24 24" fill="none" xmlns="http://www.w3.org/2000/svg">
<path d="M16.9402 16.5336L16.872 16.6061L16.9442 16.6746L20.5794 20.1238C21.0099 20.5323 21.0101 21.1859 20.5604 21.5947L20.5604 21.5947L20.5589 21.5962C20.3524 21.7921 20.0693 21.9 19.7857 21.9C19.5021 21.9 19.219 21.7921 19.0124 21.5962L15.2335 18.0105L15.1787 17.9585L15.1137 17.9971C13.814 18.7678 12.2707 19.2303 10.6053 19.2303C5.91131 19.2303 2.1 15.6066 2.1 11.1651C2.1 6.7237 5.91131 3.1 10.6053 3.1C15.2993 3.1 19.1106 6.7237 19.1106 11.1651C19.1106 13.2227 18.2798 15.1085 16.9402 16.5336ZM10.6053 5.18C7.12507 5.18 4.30291 7.87036 4.30291 11.1651C4.30291 14.4798 7.14605 17.1503 10.6053 17.1503C14.0652 17.1503 16.8872 14.4597 16.8872 11.1651C16.8872 7.87078 14.086 5.18 10.6053 5.18Z" fill="#F76631" stroke="white" stroke-width="0.2"/>
</svg>
