<svg width="35" height="35" viewBox="0 0 24 24" fill="none" xmlns="http://www.w3.org/2000/svg">
<path d="M11.5 4C9.81886 4 8.17547 4.49852 6.77766 5.43251C5.37984 6.3665 4.29037 7.69402 3.64703 9.24719C3.00368 10.8004 2.83535 12.5094 3.16333 14.1583C3.4913 15.8071 4.30085 17.3217 5.4896 18.5104C6.67834 19.6992 8.1929 20.5087 9.84173 20.8367C11.4906 21.1646 13.1996 20.9963 14.7528 20.353C16.306 19.7096 17.6335 18.6202 18.5675 17.2223C19.5015 15.8245 20 14.1811 20 12.5C19.9979 10.2463 19.1017 8.08551 17.5081 6.4919C15.9145 4.8983 13.7537 4.00209 11.5 4ZM11.5 19.4179C10.5717 19.4197 9.65258 19.234 8.79769 18.8722C7.94281 18.5103 7.16974 17.9797 6.52478 17.312C7.88046 15.5931 9.64153 14.6533 11.5 14.6533C13.3585 14.6533 15.1195 15.5957 16.4752 17.3041C15.8312 17.9737 15.0585 18.5063 14.2036 18.87C13.3486 19.2337 12.4291 19.4209 11.5 19.4206V19.4179ZM11.5 12.6106C11.1027 12.6132 10.7136 12.4977 10.382 12.2789C10.0504 12.0601 9.79129 11.7477 9.63745 11.3815C9.48361 11.0152 9.442 10.6114 9.51791 10.2215C9.59381 9.83151 9.78381 9.47287 10.0638 9.19102C10.3438 8.90917 10.7012 8.71682 11.0906 8.63835C11.4801 8.55988 11.8841 8.59883 12.2514 8.75025C12.6187 8.90168 12.9327 9.15876 13.1537 9.48891C13.3747 9.81906 13.4927 10.2074 13.4927 10.6047C13.4938 10.8674 13.443 11.1278 13.3435 11.3709C13.2439 11.614 13.0974 11.8351 12.9123 12.0216C12.7273 12.2082 12.5073 12.3564 12.265 12.4579C12.0227 12.5594 11.7627 12.6122 11.5 12.6132V12.6106ZM17.4597 16.0116C16.4714 14.8172 15.171 13.9205 13.7033 13.4213C14.288 12.9627 14.7152 12.3331 14.9252 11.6203C15.1352 10.9074 15.1177 10.1469 14.8751 9.44444C14.6325 8.74203 14.1769 8.13276 13.5717 7.70151C12.9665 7.27026 12.2418 7.0385 11.4987 7.0385C10.7556 7.0385 10.0309 7.27026 9.42572 7.70151C8.82051 8.13276 8.36487 8.74203 8.12226 9.44444C7.87965 10.1469 7.86214 10.9074 8.07218 11.6203C8.28221 12.3331 8.70934 12.9627 9.29406 13.4213C7.82729 13.9209 6.52786 14.8176 5.54026 16.0116C4.91936 14.9606 4.58749 13.7641 4.57832 12.5435C4.56915 11.3228 4.88301 10.1214 5.48805 9.06125C6.09309 8.00106 6.96779 7.11976 8.02341 6.50677C9.07902 5.89378 10.278 5.57091 11.4987 5.57091C12.7194 5.57091 13.9183 5.89378 14.974 6.50677C16.0296 7.11976 16.9043 8.00106 17.5093 9.06125C18.1144 10.1214 18.4282 11.3228 18.4191 12.5435C18.4099 13.7641 18.078 14.9606 17.4571 16.0116H17.4597Z" fill="#F76631"/>
</svg>
